<svg version="1.1" width="786.5" height="159.7" viewBox="0 0 786.5 159.7" xmlns="http://www.w3.org/2000/svg" xmlns:xlink="http://www.w3.org/1999/xlink" overflow="visible"><style>
.MsftOfcThm_Background2_Fill {
 fill:#00204D; 
}
</style>
<defs></defs><g><path d=" M 65.8 0 L 90.8 0 L 156.5 157.4 L 132.4 157.4 L 121.1 128.7 L 35.7 128.7 L 24.1 157.4 L 0 157.4 L 65.8 0 Z M 113.2 109 L 105.8 90.9 L 50.7 90.9 L 43.5 109 L 113.2 109 Z M 98.6 72.4 L 94.4 62.2 C 87.7 45.5 81.9 31.6 78.2 21.2 C 74.7 31.6 68.9 45.5 62.2 62.2 L 58 72.4 L 98.6 72.4 Z M 158.4 96.2 C 158.4 58.5 186.2 32.8 222.1 32.8 C 252.9 32.8 276.3 50.4 281.6 80.7 L 257.8 80.7 C 252.5 62 239.7 53.6 221.7 53.6 C 196.5 53.6 182.1 72.1 182.1 96.2 C 182.1 121.4 197.4 138.8 221.9 138.8 C 239.7 138.8 252.9 129.8 258 113.6 L 281.8 113.6 C 274.4 143.2 250.8 159.7 220.9 159.7 C 182.4 159.7 158.4 132.8 158.4 96.2 Z M 299.5 35.1 L 320.8 35.1 L 321.7 50.6 C 329.3 39.7 340.7 32.8 355 32.8 L 357.1 32.8 L 357.1 58.5 L 353.6 58.5 C 329.3 58.5 322.6 72.4 322.6 94.1 L 322.6 157.3 L 299.5 157.3 L 299.5 35.1 L 299.5 35.1 Z M 360.9 96.2 C 360.9 58.7 388.9 32.8 425 32.8 C 462.5 32.8 489.1 60.1 489.1 96.2 C 489.1 132.8 462 159.6 425 159.6 C 388 159.6 360.9 132.8 360.9 96.2 Z M 465.5 96 C 465.5 71.9 449.8 53.6 425 53.6 C 399.8 53.6 384.7 72.1 384.7 96 C 384.7 121.5 401.6 138.8 425.2 138.8 C 449.1 138.8 465.5 120.5 465.5 96 Z M 506.2 35.1 L 526.8 35.1 L 528.4 47.8 C 537.9 37.9 550.8 32.8 567.5 32.8 C 596.4 32.8 612.6 49.9 612.6 80.2 L 612.6 157.3 L 589.5 157.3 L 589.5 84.6 C 589.5 64.7 581.6 53.8 562.6 53.8 C 542 53.8 529.3 67 529.3 86.9 L 529.3 157.3 L 506.2 157.3 L 506.2 35.1 L 506.2 35.1 Z M 637.9 35.1 L 660.8 35.1 L 660.8 157.3 L 637.9 157.3 L 637.9 35.1 Z M 684.7 119.6 L 707.2 119.6 C 709.5 134.4 721.3 140.9 738.7 140.9 C 753.1 140.9 763.9 135.3 763.9 124 C 763.9 116.1 760.2 112.9 754.4 110.8 C 748.8 108.7 743.1 107.8 731.5 105.9 C 719.5 104.1 711.1 102.2 703.9 98.7 C 692.8 93.4 688.4 83.4 688.4 72.3 C 688.4 46.4 708.8 32.7 734.9 32.7 C 763.4 32.7 782.3 45.9 783.7 72.5 L 761.7 72.5 C 760.3 58.4 749.2 51.4 734.9 51.4 C 719.6 51.4 710.6 59 710.6 69.4 C 710.6 76.1 713.8 79.6 719.9 81.9 C 725.9 84.2 737 85.4 746.5 86.8 C 755.5 88.2 763.9 89.8 771.5 94 C 781.7 99.5 786.5 110.2 786.5 121.1 C 786.5 132.7 782.1 142.9 773.8 149.6 C 765 156.8 753.4 159.6 738.6 159.6 C 708.8 159.7 687 148.6 684.7 119.6 Z" class="MsftOfcThm_Background2_Fill" stroke="none" stroke-width="1" stroke-dasharray="" stroke-dashoffset="1" fill="#00204D" fill-opacity="1"/></g></svg>